<mxfile host="Electron" agent="Mozilla/5.0 (Macintosh; Intel Mac OS X 10_15_7) AppleWebKit/537.36 (KHTML, like Gecko) draw.io/24.7.5 Chrome/126.0.6478.183 Electron/31.3.0 Safari/537.36" version="24.7.5">
  <diagram name="Page-1" id="p2ym82j-yzsUY-9wzpua">
    <mxGraphModel dx="1114" dy="999" grid="1" gridSize="10" guides="1" tooltips="1" connect="1" arrows="1" fold="1" page="1" pageScale="1" pageWidth="850" pageHeight="1100" math="0" shadow="0">
      <root>
        <mxCell id="0" />
        <mxCell id="1" parent="0" />
        <mxCell id="8bEhNx0VsWg2YI6NH6Sd-9" value="" style="rounded=0;whiteSpace=wrap;html=1;fillColor=none;strokeColor=#67AB9F;fontSize=12;fontColor=#000000;" vertex="1" parent="1">
          <mxGeometry x="40" y="440" width="360" height="160" as="geometry" />
        </mxCell>
        <mxCell id="jnz21FEV_imdLYysSnnx-13" value="" style="rounded=0;whiteSpace=wrap;html=1;fillColor=none;strokeColor=#67AB9F;fontSize=12;fontColor=#000000;" parent="1" vertex="1">
          <mxGeometry x="40" y="40" width="360" height="160" as="geometry" />
        </mxCell>
        <mxCell id="jnz21FEV_imdLYysSnnx-14" value="" style="rounded=0;whiteSpace=wrap;html=1;fontSize=12;align=left;fillColor=none;strokeColor=#67AB9F;dashed=1;fontColor=#000000;" parent="1" vertex="1">
          <mxGeometry x="120" y="40" width="200" height="160" as="geometry" />
        </mxCell>
        <mxCell id="jnz21FEV_imdLYysSnnx-30" value="&lt;font style=&quot;font-size: 12px;&quot;&gt;sidebar&lt;/font&gt;" style="rounded=0;whiteSpace=wrap;html=1;fontSize=24;align=center;fillColor=none;strokeColor=none;verticalAlign=middle;spacingBottom=8;" parent="1" vertex="1">
          <mxGeometry x="40" y="100" width="80" height="40" as="geometry" />
        </mxCell>
        <mxCell id="jnz21FEV_imdLYysSnnx-31" value="&lt;font style=&quot;font-size: 12px;&quot;&gt;key&lt;/font&gt;" style="rounded=0;whiteSpace=wrap;html=1;fontSize=24;align=left;fillColor=none;strokeColor=none;verticalAlign=middle;spacingBottom=8;spacingLeft=16;" parent="1" vertex="1">
          <mxGeometry x="120" y="40" width="200" height="40" as="geometry" />
        </mxCell>
        <mxCell id="jnz21FEV_imdLYysSnnx-32" value="&lt;font style=&quot;font-size: 12px;&quot;&gt;value&lt;/font&gt;" style="rounded=0;whiteSpace=wrap;html=1;fontSize=24;align=left;fillColor=none;strokeColor=#67AB9F;verticalAlign=middle;spacingBottom=8;dashed=1;spacingLeft=16;" parent="1" vertex="1">
          <mxGeometry x="120" y="80" width="200" height="40" as="geometry" />
        </mxCell>
        <mxCell id="jnz21FEV_imdLYysSnnx-33" value="&lt;font style=&quot;font-size: 12px;&quot;&gt;note&lt;/font&gt;" style="rounded=0;whiteSpace=wrap;html=1;fontSize=24;align=left;fillColor=none;strokeColor=none;verticalAlign=middle;spacingBottom=8;dashed=1;spacingLeft=16;" parent="1" vertex="1">
          <mxGeometry x="120" y="120" width="200" height="40" as="geometry" />
        </mxCell>
        <mxCell id="jnz21FEV_imdLYysSnnx-35" value="&lt;font style=&quot;font-size: 12px;&quot;&gt;error&lt;/font&gt;" style="rounded=0;whiteSpace=wrap;html=1;fontSize=24;align=left;fillColor=none;strokeColor=#67AB9F;verticalAlign=middle;spacingBottom=8;dashed=1;spacingLeft=16;" parent="1" vertex="1">
          <mxGeometry x="120" y="160" width="200" height="40" as="geometry" />
        </mxCell>
        <mxCell id="jnz21FEV_imdLYysSnnx-36" value="&lt;font style=&quot;font-size: 12px;&quot;&gt;sidebar&lt;/font&gt;" style="rounded=0;whiteSpace=wrap;html=1;fontSize=24;align=center;fillColor=none;strokeColor=none;verticalAlign=middle;spacingBottom=8;" parent="1" vertex="1">
          <mxGeometry x="320" y="100" width="80" height="40" as="geometry" />
        </mxCell>
        <mxCell id="8bEhNx0VsWg2YI6NH6Sd-1" value="" style="rounded=0;whiteSpace=wrap;html=1;fillColor=none;strokeColor=#67AB9F;fontSize=12;fontColor=#000000;" vertex="1" parent="1">
          <mxGeometry x="40" y="240" width="360" height="160" as="geometry" />
        </mxCell>
        <mxCell id="8bEhNx0VsWg2YI6NH6Sd-2" value="" style="rounded=0;whiteSpace=wrap;html=1;fontSize=12;align=left;fillColor=none;strokeColor=#67AB9F;dashed=1;fontColor=#000000;" vertex="1" parent="1">
          <mxGeometry x="120" y="240" width="200" height="160" as="geometry" />
        </mxCell>
        <mxCell id="8bEhNx0VsWg2YI6NH6Sd-3" value="&lt;font style=&quot;font-size: 12px;&quot;&gt;sidebar&lt;/font&gt;" style="rounded=0;whiteSpace=wrap;html=1;fontSize=24;align=center;fillColor=none;strokeColor=none;verticalAlign=middle;spacingBottom=8;" vertex="1" parent="1">
          <mxGeometry x="40" y="300" width="80" height="40" as="geometry" />
        </mxCell>
        <mxCell id="8bEhNx0VsWg2YI6NH6Sd-4" value="&lt;font style=&quot;font-size: 12px;&quot;&gt;title&lt;/font&gt;" style="rounded=0;whiteSpace=wrap;html=1;fontSize=24;align=left;fillColor=none;strokeColor=#67AB9F;verticalAlign=middle;spacingBottom=8;spacingLeft=16;dashed=1;" vertex="1" parent="1">
          <mxGeometry x="120" y="240" width="200" height="40" as="geometry" />
        </mxCell>
        <mxCell id="8bEhNx0VsWg2YI6NH6Sd-5" value="&lt;font style=&quot;font-size: 12px;&quot;&gt;subtitle&lt;/font&gt;" style="rounded=0;whiteSpace=wrap;html=1;fontSize=24;align=left;fillColor=none;strokeColor=none;verticalAlign=top;spacingBottom=8;dashed=1;spacingLeft=16;" vertex="1" parent="1">
          <mxGeometry x="120" y="280" width="200" height="120" as="geometry" />
        </mxCell>
        <mxCell id="8bEhNx0VsWg2YI6NH6Sd-8" value="&lt;font style=&quot;font-size: 12px;&quot;&gt;sidebar&lt;/font&gt;" style="rounded=0;whiteSpace=wrap;html=1;fontSize=24;align=center;fillColor=none;strokeColor=none;verticalAlign=middle;spacingBottom=8;" vertex="1" parent="1">
          <mxGeometry x="320" y="300" width="80" height="40" as="geometry" />
        </mxCell>
        <mxCell id="8bEhNx0VsWg2YI6NH6Sd-10" value="" style="rounded=0;whiteSpace=wrap;html=1;fontSize=12;align=left;fillColor=none;strokeColor=#67AB9F;dashed=1;fontColor=#000000;" vertex="1" parent="1">
          <mxGeometry x="40" y="440" width="360" height="160" as="geometry" />
        </mxCell>
        <mxCell id="8bEhNx0VsWg2YI6NH6Sd-12" value="&lt;font style=&quot;font-size: 12px;&quot;&gt;key&lt;/font&gt;" style="rounded=0;whiteSpace=wrap;html=1;fontSize=24;align=left;fillColor=none;strokeColor=none;verticalAlign=middle;spacingBottom=8;spacingLeft=16;" vertex="1" parent="1">
          <mxGeometry x="40" y="440" width="360" height="40" as="geometry" />
        </mxCell>
        <mxCell id="8bEhNx0VsWg2YI6NH6Sd-13" value="&lt;font style=&quot;font-size: 12px;&quot;&gt;value&lt;/font&gt;" style="rounded=0;whiteSpace=wrap;html=1;fontSize=24;align=left;fillColor=none;strokeColor=#67AB9F;verticalAlign=middle;spacingBottom=8;dashed=1;spacingLeft=16;" vertex="1" parent="1">
          <mxGeometry x="40" y="480" width="360" height="40" as="geometry" />
        </mxCell>
        <mxCell id="8bEhNx0VsWg2YI6NH6Sd-14" value="&lt;font style=&quot;font-size: 12px;&quot;&gt;note&lt;/font&gt;" style="rounded=0;whiteSpace=wrap;html=1;fontSize=24;align=left;fillColor=none;strokeColor=none;verticalAlign=middle;spacingBottom=8;dashed=1;spacingLeft=16;" vertex="1" parent="1">
          <mxGeometry x="40" y="520" width="360" height="40" as="geometry" />
        </mxCell>
        <mxCell id="8bEhNx0VsWg2YI6NH6Sd-15" value="&lt;font style=&quot;font-size: 12px;&quot;&gt;error&lt;/font&gt;" style="rounded=0;whiteSpace=wrap;html=1;fontSize=24;align=left;fillColor=none;strokeColor=#67AB9F;verticalAlign=middle;spacingBottom=8;dashed=1;spacingLeft=16;" vertex="1" parent="1">
          <mxGeometry x="40" y="560" width="360" height="40" as="geometry" />
        </mxCell>
      </root>
    </mxGraphModel>
  </diagram>
</mxfile>
